<svg xmlns="http://www.w3.org/2000/svg" viewBox="0 0 32 32" width="32" height="32">
  <defs>
    <linearGradient id="favGradient" x1="0%" y1="0%" x2="100%" y2="100%">
      <stop offset="0%" style="stop-color:#1a5f7a"/>
      <stop offset="100%" style="stop-color:#134b61"/>
    </linearGradient>
  </defs>
  <!-- Background circle -->
  <circle cx="16" cy="16" r="15" fill="url(#favGradient)"/>
  <!-- Wrench simplified -->
  <g transform="translate(6, 6) scale(0.4)">
    <path d="M35 5c-2.5 0-4.8 0.8-6.7 2.2l-3.8-3.8c-0.6-0.6-1.5-0.6-2.1 0l-2.1 2.1c-0.6 0.6-0.6 1.5 0 2.1l3.8 3.8c-1.4 1.9-2.2 4.2-2.2 6.7c0 6.1 4.9 11 11 11c2.5 0 4.8-0.8 6.7-2.2l15.5 15.5c0.6 0.6 1.5 0.6 2.1 0l4.2-4.2c0.6-0.6 0.6-1.5 0-2.1L46.2 21.6c1.4-1.9 2.2-4.2 2.2-6.7C48.4 8.9 42.1 5 35 5zM35 22c-3.3 0-6-2.7-6-6s2.7-6 6-6s6 2.7 6 6S38.3 22 35 22z" fill="#ffffff"/>
    <!-- Water drop -->
    <ellipse cx="12" cy="38" rx="8" ry="11" fill="#ffffff" opacity="0.9"/>
  </g>
</svg>
