<svg xmlns="http://www.w3.org/2000/svg" viewBox="0 0 32 32">
  <rect width="32" height="32" rx="6" fill="#1a5f7a"/>
  <path d="M10 8c0-1.1.9-2 2-2h1c1.1 0 2 .9 2 2v4h-1v-1c0-.6-.4-1-1-1s-1 .4-1 1v10c0 .6.4 1 1 1s1-.4 1-1v-3h1v4c0 1.1-.9 2-2 2h-1c-1.1 0-2-.9-2-2V8z" fill="#fff"/>
  <path d="M17 14h6v2h-2v8h-2v-8h-2v-2z" fill="#e63946"/>
  <circle cx="24" cy="10" r="2.5" fill="#f4a261"/>
  <path d="M23.2 9.2l.8.8 1.2-1.2" stroke="#1a5f7a" stroke-width=".8" fill="none" stroke-linecap="round" stroke-linejoin="round"/>
</svg>
