<svg xmlns="http://www.w3.org/2000/svg" viewBox="0 0 40 40" width="40" height="40">
  <rect width="40" height="40" rx="8" fill="#1a5f7a"/>
  <g transform="translate(6, 7)">
    <!-- Wrench shape -->
    <path d="M8 2C5.8 2 4 3.8 4 6c0 1.5.8 2.8 2 3.5V22c0 1.7 1.3 3 3 3h2c1.7 0 3-1.3 3-3V9.5c1.2-.7 2-2 2-3.5 0-2.2-1.8-4-4-4H8zM8 5c.6 0 1 .4 1 1s-.4 1-1 1-1-.4-1-1 .4-1 1-1zm4 0c.6 0 1 .4 1 1s-.4 1-1 1-1-.4-1-1 .4-1 1-1z" fill="#fff"/>
    <!-- Water drop -->
    <path d="M22 10c0 0-5 6-5 10 0 3 2.2 5 5 5s5-2 5-5c0-4-5-10-5-10z" fill="#4fc3f7" opacity="0.9"/>
    <ellipse cx="20.5" cy="21" rx="1" ry="1.5" fill="#fff" opacity="0.5"/>
  </g>
</svg>
